<svg width="490" height="757" viewBox="0 0 490 757" fill="none" xmlns="http://www.w3.org/2000/svg">
<g filter="url(#filter0_d_0_85)">
<rect x="20" width="450" height="697" rx="20" fill="white"/>
</g>
<path d="M20 20C20 8.9543 28.9543 0 40 0H450C461.046 0 470 8.95431 470 20V220H20V20Z" fill="#382AE1"/>
<mask id="mask0_0_85" style="mask-type:luminance" maskUnits="userSpaceOnUse" x="20" y="0" width="450" height="220">
<path d="M20 20C20 8.9543 28.9543 0 40 0H450C461.046 0 470 8.95431 470 20V220H20V20Z" fill="white"/>
</mask>
<g mask="url(#mask0_0_85)">
<path fill-rule="evenodd" clip-rule="evenodd" d="M262.604 134.782V149.327L265.588 150.87V263.778L51.8997 266.214V193.977H58.9133V124.52H61.461V114.969H64.506V124.52H78.6551C78.6551 124.52 78.4419 169.475 78.6551 169.718C78.8682 169.962 85.9732 169.718 85.9732 169.718V206.157H91.7587V76.3993H99.1377V69.2435H102.183V76.3993H125.294V82.7938H134.084V69.2435H137.129V82.7938H141.443V106.565H151.796V149.195H163.976V187.887H170.36V107.468H178.399V95.1564H181.444V107.468H203.561V63.0215H210.016V59.3675H235.767V46H238.812V59.3675H240.497V62.9911H246.8V140.974L259.559 147.673V134.782H262.604ZM35.8424 151.64H39.0396L45.4747 265.899H12L18.4453 151.64H20.9625V147.489H35.8424V151.64Z" fill="#1E1FCD"/>
<path fill-rule="evenodd" clip-rule="evenodd" d="M466.604 170.782V185.327L469.588 186.87V299.778L255.9 302.214V229.977H262.913V160.52H265.461V150.969H268.506V160.52H282.655C282.655 160.52 282.442 205.475 282.655 205.718C282.868 205.962 289.973 205.718 289.973 205.718V242.157H295.759V112.399H303.138V105.243H306.183V112.399H329.294V118.794H338.084V105.243H341.129V118.794H345.443V142.565H355.796V185.195H367.976V223.887H374.36V143.468H382.399V131.156H385.444V143.468H407.561V99.0215H414.016V95.3675H439.767V82H442.812V95.3675H444.497V98.9911H450.8V176.974L463.559 183.673V170.782H466.604ZM239.842 187.64H243.04L249.475 301.899H216L222.445 187.64H224.962V183.489H239.842V187.64Z" fill="#1E1FCD"/>
<path d="M244.743 27.8941C244.596 25.7772 235.118 31.9355 235.118 31.9355C235.118 31.9355 243.146 25.7772 242.458 24.2376C241.77 22.698 232.724 29.4337 232.724 29.4337C232.724 29.4337 240.981 23.0829 239.706 21.7266C238.43 20.3703 229.613 27.5092 229.613 27.5092C229.613 27.5092 238.605 19.6097 235.173 19.4173C233.632 19.3348 221.53 27.5551 208.419 37.4249C212.089 42.007 215.759 46.4333 219.722 50.7129C223.925 46.3691 227.237 42.9142 227.686 42.3369C229.035 40.6048 242.431 41.7595 242.486 39.6426C242.541 37.5257 233.659 36.5634 233.659 36.5634C233.659 36.5634 244.89 30.0111 244.743 27.8941Z" fill="white"/>
<path fill-rule="evenodd" clip-rule="evenodd" d="M219.365 50.997C219.443 51.0808 219.553 51.1274 219.667 51.1253C219.77 51.1183 219.867 51.0762 219.943 51.0062C224.906 45.8742 227.42 43.2533 227.934 42.5935C228.447 41.935 231.993 41.742 234.853 41.5864L234.871 41.5854C239.779 41.3288 242.816 41.0905 242.816 39.6518C242.862 37.6723 237.715 36.6917 234.852 36.2977C237.981 34.4282 245.275 29.8461 245.137 27.8666C245.125 27.5606 244.945 27.2862 244.67 27.1518C243.835 26.7303 241.651 27.665 239.495 28.8197C241.504 26.9777 243.229 25.0166 242.779 24.0544C242.675 23.8311 242.471 23.671 242.229 23.6236C241.486 23.4312 239.871 24.201 238.146 25.2182C239.284 24.0177 240.137 22.9363 240.201 22.1849C240.236 21.9143 240.149 21.6422 239.963 21.4426C239.174 20.5995 236.66 21.8916 234.146 23.5687C235.494 22.0382 236.522 20.517 236.228 19.6922C236.051 19.2394 235.594 18.959 235.109 19.0049C232.944 19.0049 217.805 29.7545 208.107 37.0858C208.018 37.1569 207.959 37.2581 207.941 37.3699C207.929 37.4818 207.962 37.594 208.033 37.6815C212.245 42.96 215.841 47.1847 219.365 50.997ZM219.676 50.0989C216.3 46.4699 212.914 42.4468 208.96 37.4982C223.53 26.5562 233.815 19.8388 235.072 19.903C235.238 19.9121 235.449 19.9488 235.449 20.0313C235.742 20.8469 232.467 24.4392 229.265 27.2618C229.187 27.3377 229.143 27.4418 229.143 27.5505C229.143 27.6592 229.187 27.7633 229.265 27.8392C229.413 28.0121 229.67 28.0402 229.852 27.9033C234.329 24.2926 238.889 21.5159 239.403 22.0841V22.1849C239.293 23.4404 235.082 27.1335 232.448 29.168C232.263 29.3097 232.228 29.5743 232.37 29.759C232.512 29.9438 232.777 29.9787 232.962 29.8369C237.256 26.6203 241.44 24.1735 242.055 24.4759C242.367 25.1357 239.008 28.499 234.871 31.6698C234.713 31.8118 234.685 32.0489 234.806 32.2233C234.927 32.3977 235.159 32.455 235.348 32.3571C239.651 29.562 243.761 27.5551 244.33 27.9491C244.403 29.0855 238.834 33.0444 233.393 36.1969C233.24 36.2903 233.163 36.4705 233.201 36.6459C233.235 36.8219 233.38 36.9553 233.558 36.9758C237.641 37.4249 242.009 38.5612 242.009 39.6334C241.991 40.3585 237.449 40.6085 234.935 40.7469L234.852 40.7515C230.622 40.9806 227.998 41.1639 227.301 42.0803C227.017 42.4194 225.494 44.0872 219.676 50.0989Z" fill="#231F20"/>
<path d="M173.058 68.8763C170.36 77.3898 186.655 116.713 186.655 116.713L206.84 91.7959C206.391 91.0261 196.188 73.3026 196.188 73.3026C196.188 73.3026 211.244 59.3822 219.64 50.7129C215.694 46.4332 211.969 41.9703 208.336 37.4249C192.224 49.5582 174.544 64.1842 173.058 68.8763Z" fill="#231F20"/>
<path fill-rule="evenodd" clip-rule="evenodd" d="M186.554 117.117H186.655C186.792 117.132 186.926 117.076 187.013 116.97L207.198 92.0617C207.289 91.9223 207.289 91.7429 207.198 91.6035C206.785 90.8887 197.996 75.6486 196.693 73.3851C198.647 71.5798 212.199 58.9882 219.933 50.997C220.074 50.8405 220.074 50.6037 219.933 50.4472C216.419 46.6532 212.832 42.4377 208.639 37.1775C208.5 37.0081 208.252 36.9797 208.079 37.1133C191.903 49.2467 174.168 63.9368 172.636 68.7664C169.92 77.3257 185.572 115.265 186.242 116.869C186.294 117.002 186.413 117.096 186.554 117.117ZM173.425 68.9955C174.911 64.3767 193.059 49.4574 208.29 37.9839C212.29 42.9875 215.74 47.0381 219.117 50.7038C211.065 58.9496 197.124 71.9003 196.01 72.9352C195.969 72.9734 195.946 72.9953 195.94 73.0002C195.802 73.1305 195.769 73.3368 195.858 73.5042L206.363 91.7593L186.747 115.925C184.682 110.848 170.984 76.6934 173.425 68.9955Z" fill="#231F20"/>
<path d="M221.044 109.529C222.695 120.947 230.301 130.606 238.559 139.431C243.504 144.673 249.569 150.007 256.808 149.668C260.267 149.494 263.515 148.009 266.534 146.323C274.093 142.131 280.854 136.644 286.508 130.111C284.214 130.12 282.284 128.394 282.04 126.116C285.049 127.522 288.592 127.125 291.215 125.089C296.83 120.636 294.105 116.704 289.811 113.387C283.097 108.217 277.757 101.479 274.259 93.7662C268.901 81.7978 258.258 65.8063 242.495 69.4536C227.338 72.9544 223.227 86.5357 221.135 100.007C220.629 103.158 220.598 106.368 221.044 109.529Z" fill="white"/>
<path fill-rule="evenodd" clip-rule="evenodd" d="M238.256 139.715C243.11 144.875 249.019 150.098 256.129 150.098H256.827C260.497 149.924 263.901 148.284 266.736 146.708C274.35 142.49 281.151 136.95 286.82 130.35C286.932 130.227 286.957 130.049 286.884 129.901C286.814 129.748 286.658 129.654 286.49 129.662C284.7 129.648 283.124 128.482 282.59 126.776C285.584 127.865 288.927 127.342 291.444 125.392C293.665 123.614 294.775 121.726 294.775 119.893C294.757 117.676 293.252 115.494 290.041 113.011C283.376 107.887 278.079 101.202 274.617 93.5463C263.304 68.3173 249.56 67.3367 242.367 68.9955C235.623 70.4077 229.837 74.6972 226.53 80.7348C223.071 86.7281 221.612 94.1236 220.695 99.897C220.187 103.107 220.166 106.376 220.631 109.593C222.346 121.451 230.503 131.468 238.256 139.715ZM242.559 69.8111C243.962 69.4889 245.396 69.326 246.835 69.3254C254.175 69.3254 264.763 73.6234 273.837 93.9312C277.357 101.708 282.739 108.499 289.508 113.707C292.463 115.989 293.912 118.024 293.912 119.93C293.931 121.534 292.912 123.156 290.903 124.759C288.411 126.684 285.052 127.059 282.196 125.731C282.069 125.653 281.91 125.653 281.783 125.731C281.656 125.812 281.586 125.957 281.599 126.107C281.833 128.276 283.469 130.033 285.618 130.423C280.134 136.665 273.617 141.919 266.35 145.956C263.598 147.487 260.304 149.081 256.808 149.246C249.707 149.613 243.77 144.352 238.889 139.166C231.2 131.028 223.135 121.13 221.456 109.492C221.005 106.36 221.027 103.178 221.521 100.053C223.649 86.3616 227.668 73.2568 242.559 69.8111Z" fill="#231F20"/>
<path d="M325.851 145.37C325.209 147.908 314.667 166.713 314.667 166.713L328.429 174.145C328.429 174.145 340.88 153.306 341.944 151.922C343.009 150.538 352.037 138.524 353.266 134.308C354.496 130.093 345.816 126.977 342.256 127.316C338.696 127.655 326.493 142.831 325.851 145.37Z" fill="white"/>
<path fill-rule="evenodd" clip-rule="evenodd" d="M328.218 174.512C328.276 174.548 328.343 174.567 328.411 174.567C328.532 174.561 328.644 174.5 328.714 174.402C328.742 174.362 329.349 173.349 330.294 171.775C333.68 166.132 341.392 153.278 342.21 152.224C342.215 152.218 342.241 152.183 342.288 152.121C343.229 150.878 352.347 138.829 353.597 134.464C353.913 133.27 353.594 131.997 352.753 131.092C350.486 128.352 344.844 126.711 342.137 126.941C338.412 127.225 326.071 142.575 325.392 145.269C324.888 147.257 317.924 160.023 314.254 166.502C314.208 166.604 314.208 166.721 314.254 166.823C314.282 166.933 314.355 167.026 314.456 167.08L328.218 174.512ZM328.264 173.586L315.245 166.539C316.768 163.817 325.649 147.862 326.255 145.47C326.815 143.308 338.907 128.022 342.265 127.729C344.724 127.518 350.092 129.076 352.156 131.578C352.827 132.268 353.088 133.258 352.844 134.189C351.743 138.029 343.697 148.916 341.596 151.665C340.596 152.967 329.943 170.773 328.264 173.586Z" fill="#231F20"/>
<path d="M321.897 153.498L309.602 168.473L283.086 150.722L271.791 171.726C271.791 171.726 309.345 199.887 314.667 197.193C319.988 194.499 336.109 161.269 336.109 161.269L321.897 153.498Z" fill="#231F20"/>
<path fill-rule="evenodd" clip-rule="evenodd" d="M271.543 172.047C275.214 174.796 306.07 197.761 313.813 197.761C314.163 197.782 314.512 197.719 314.832 197.578C320.227 194.856 335.834 162.837 336.494 161.471C336.585 161.278 336.514 161.047 336.329 160.94L322.071 153.168C321.901 153.073 321.686 153.116 321.566 153.269L309.501 167.932L283.306 150.382C283.212 150.319 283.095 150.299 282.985 150.327C282.875 150.356 282.781 150.429 282.728 150.529L271.433 171.533C271.342 171.709 271.388 171.924 271.543 172.047ZM314.511 196.836C310.336 198.934 282.911 179.534 272.305 171.607L283.223 151.299L309.382 168.812C309.552 168.933 309.788 168.896 309.914 168.729L321.998 154.011L335.613 161.444C333.898 164.981 319.364 194.37 314.511 196.836Z" fill="#231F20"/>
<path d="M333.155 116.878L333.035 153.498H350.385V116.878H333.155Z" fill="#231F20"/>
<path fill-rule="evenodd" clip-rule="evenodd" d="M333.035 153.938H350.385C350.494 153.938 350.598 153.894 350.674 153.817C350.75 153.739 350.792 153.634 350.789 153.526V116.869C350.789 116.646 350.608 116.466 350.385 116.466H333.155C332.93 116.466 332.747 116.645 332.742 116.869L332.632 153.526C332.629 153.634 332.671 153.739 332.746 153.817C332.822 153.894 332.927 153.938 333.035 153.938ZM349.963 153.132H333.448L333.54 117.281H349.963V153.132Z" fill="#231F20"/>
<path d="M334.916 120.113L334.824 148.889H348.606V120.113H334.916Z" fill="white"/>
<path fill-rule="evenodd" clip-rule="evenodd" d="M334.843 149.301H348.605C348.718 149.306 348.828 149.265 348.909 149.187C348.991 149.109 349.037 149.001 349.037 148.889V120.113C349.037 119.885 348.852 119.701 348.624 119.701H334.935C334.705 119.701 334.517 119.884 334.512 120.113L334.43 148.88C334.425 148.993 334.469 149.102 334.549 149.182C334.627 149.26 334.733 149.303 334.843 149.301ZM348.183 148.44H335.246L335.338 120.535H348.183V148.44Z" fill="#231F20"/>
<path d="M325.099 147.276C325.099 147.276 322.511 134.941 326.392 133.007C330.274 131.074 343.614 128.81 341.55 131.834C339.485 134.858 332.255 136.728 332.255 136.728C332.255 136.728 333.742 141.044 332.109 144.105" fill="white"/>
<path d="M325.099 147.688C324.902 147.691 324.731 147.552 324.695 147.358C324.585 146.845 322.08 134.684 326.209 132.631C329.558 130.973 340.366 128.837 341.944 130.634C342.291 131.059 342.267 131.675 341.889 132.072C340.054 134.822 334.393 136.563 332.778 137.021C333.118 138.222 333.889 141.658 332.476 144.352C332.363 144.553 332.11 144.627 331.907 144.517C331.706 144.405 331.629 144.155 331.732 143.949C333.265 141.09 331.87 136.957 331.852 136.911C331.806 136.806 331.806 136.686 331.852 136.581C331.909 136.478 332.004 136.402 332.118 136.37C332.191 136.37 339.219 134.538 341.174 131.651C341.311 131.449 341.348 131.303 341.284 131.229C340.293 130.093 330.274 131.596 326.548 133.429C323.603 134.895 324.787 143.885 325.484 147.23C325.509 147.338 325.488 147.452 325.428 147.545C325.367 147.638 325.272 147.703 325.163 147.725L325.099 147.688Z" fill="#231F20"/>
<path d="M229.173 123.321L206.317 84.1346L180.627 112.626L190.169 133.172C190.169 133.172 175.489 167.877 175.489 235.902C175.489 235.902 253.643 235.563 273.314 235.563L247.624 195.653C247.624 195.653 254.047 177.16 257.359 172.541L276.489 182.943L298.858 152.509L229.173 123.321Z" fill="#75ECCA"/>
<path d="M228.842 160.674C241.458 168.005 244.44 138.203 245 131.752C245.256 129.977 245.15 128.169 244.688 126.436C243.963 124.237 242.266 122.533 240.568 120.938C238.54 119.105 236.201 117.181 233.439 117.062C230.825 117.102 228.385 118.377 226.861 120.498C225.371 122.603 224.3 124.973 223.704 127.481C220.732 137.846 220.842 148.788 226.576 158.209C227.056 159.107 227.737 159.881 228.567 160.472L228.842 160.674Z" fill="#231F20"/>
<path fill-rule="evenodd" clip-rule="evenodd" d="M228.641 161.022C229.834 161.771 231.205 162.188 232.613 162.232C233.537 162.232 234.447 162.009 235.265 161.581C242.055 158.071 244.504 141.42 245.358 131.807C245.613 129.97 245.501 128.101 245.027 126.308C244.266 124.008 242.523 122.258 240.798 120.672C238.678 118.674 236.283 116.805 233.458 116.686C230.709 116.71 228.138 118.045 226.539 120.278C225.02 122.424 223.927 124.842 223.319 127.399C219.97 139.074 220.979 149.805 226.237 158.447C226.745 159.402 227.471 160.225 228.356 160.848L228.641 161.022ZM227.173 120.773C228.57 118.821 230.783 117.613 233.182 117.492H233.402C235.972 117.593 238.219 119.371 240.275 121.259C241.926 122.78 243.587 124.439 244.284 126.556C244.723 128.239 244.823 129.993 244.578 131.715C243.165 147.798 239.623 158.41 234.907 160.848C233.136 161.764 231.21 161.59 229.026 160.316L228.76 160.161C227.992 159.6 227.364 158.869 226.925 158.025C221.787 149.613 220.805 139.074 224.099 127.619C224.678 125.162 225.721 122.839 227.173 120.773Z" fill="#231F20"/>
<path d="M266.488 104.791C267.653 109.015 265.745 114.395 262.882 117.52C260.974 119.582 256.79 120.132 255.946 116.777C254.881 112.315 255.666 107.613 258.12 103.737C259.955 100.722 263.469 98.9989 265.726 102.875C266.062 103.478 266.318 104.122 266.488 104.791Z" fill="#231F20"/>
<path fill-rule="evenodd" clip-rule="evenodd" d="M258.038 119.463C258.38 119.544 258.731 119.584 259.084 119.582C260.646 119.574 262.138 118.928 263.212 117.795C265.965 114.77 268.149 109.272 266.883 104.69C266.687 103.988 266.403 103.314 266.038 102.683C264.882 100.685 263.497 100.236 262.534 100.236C260.836 100.227 259.019 101.473 257.735 103.535C255.249 107.508 254.462 112.312 255.551 116.869C255.816 118.137 256.781 119.143 258.038 119.463ZM258.423 103.948C259.542 102.151 261.093 101.043 262.488 101.043L262.524 101.033C263.616 101.043 264.561 101.73 265.341 103.068C265.673 103.644 265.929 104.26 266.103 104.901C267.277 109.153 265.167 114.441 262.579 117.245C261.471 118.429 259.836 118.968 258.24 118.674C257.271 118.435 256.529 117.655 256.34 116.677C255.294 112.326 256.045 107.739 258.423 103.948Z" fill="#231F20"/>
<path d="M246.807 123.696C244.972 130.725 243.137 146.735 231.439 138.359C230.241 137.419 229.195 136.3 228.338 135.042C222.576 127.371 224.218 122.533 227.2 114.111C228.485 110.445 229.595 106.779 230.87 103.114C232.146 99.448 234.247 96.0022 235.99 92.529C235.926 92.6482 241.724 93.4454 247.523 90.8153C253.322 88.1852 258.12 85.4543 258.12 85.4543C259.689 87.8003 261.387 89.5782 262.222 92.3641C262.992 95.0667 263.213 97.8958 262.873 100.685C262.139 107.531 259.396 114.935 256.285 121.048C253.175 127.16 246.807 123.696 246.807 123.696Z" fill="white"/>
<path fill-rule="evenodd" clip-rule="evenodd" d="M231.191 138.716C233.467 140.348 235.513 141.172 237.348 141.172C238 141.167 238.646 141.046 239.256 140.815C243.622 139.17 245.276 131.998 246.487 126.75L246.495 126.711C246.688 125.859 246.881 125.044 247.064 124.32C248.827 125.122 250.811 125.3 252.689 124.824C254.457 124.228 255.897 122.923 256.661 121.222C260.276 114.138 262.625 106.853 263.295 100.722C263.635 97.8737 263.408 94.9864 262.625 92.2266C261.96 90.2864 260.953 88.4802 259.653 86.8931C259.258 86.3524 258.863 85.8025 258.469 85.216C258.345 85.0341 258.104 84.9748 257.909 85.0786C257.863 85.1061 253.056 87.8186 247.349 90.4304C243.858 92.0044 240.005 92.6 236.201 92.1533C236.103 92.1025 235.988 92.0933 235.883 92.1277C235.777 92.1622 235.69 92.2374 235.641 92.3366C235.155 93.308 234.641 94.2794 234.127 95.2508C232.739 97.7375 231.528 100.319 230.503 102.976C229.824 104.873 229.191 106.807 228.576 108.685C228.544 108.786 228.511 108.887 228.478 108.988C227.94 110.635 227.385 112.334 226.806 113.992L226.801 114.004C223.849 122.354 222.065 127.403 227.998 135.307C228.882 136.6 229.959 137.75 231.191 138.716ZM235.333 94.7641C235.643 94.1857 235.953 93.6073 236.247 92.9964C240.174 93.4398 244.148 92.8194 247.752 91.2002C252.624 88.9733 256.845 86.6731 258.047 86.0133C258.368 86.4807 258.708 86.9481 259.038 87.3971C260.292 88.9087 261.268 90.6308 261.919 92.4832C262.674 95.1321 262.893 97.905 262.561 100.639C261.91 106.669 259.579 113.854 256.01 120.855C255.351 122.349 254.097 123.499 252.551 124.026C250.695 124.466 248.742 124.229 247.046 123.357C246.932 123.301 246.798 123.298 246.681 123.349C246.564 123.4 246.476 123.501 246.44 123.623C246.264 124.28 246.092 125.024 245.909 125.818C245.855 126.054 245.8 126.294 245.743 126.537C245.709 126.679 245.675 126.821 245.641 126.966C244.444 131.988 242.871 138.584 239.027 140.036C237.027 140.788 234.568 140.109 231.687 138.038C230.525 137.119 229.51 136.028 228.677 134.803C223.007 127.252 224.631 122.643 227.595 114.266C228.097 112.841 228.547 111.469 229.024 110.012C229.139 109.661 229.255 109.305 229.375 108.942C229.481 108.62 229.587 108.294 229.694 107.967C230.209 106.395 230.738 104.777 231.292 103.26C232.305 100.638 233.501 98.0904 234.871 95.6357C235.023 95.3424 235.178 95.0532 235.333 94.7641Z" fill="#231F20"/>
<path d="M244.881 130.496C244.881 130.496 239.201 129.204 236.623 124.485C234.045 119.765 235.605 116.145 235.605 116.145C235.605 116.145 240.559 121.873 246.826 123.724L244.881 130.496Z" fill="#231F20"/>
<path fill-rule="evenodd" clip-rule="evenodd" d="M244.789 130.899H244.881C245.063 130.902 245.225 130.782 245.275 130.606L247.174 123.852C247.206 123.749 247.194 123.637 247.142 123.543C247.091 123.448 247.003 123.378 246.899 123.348C240.853 121.552 235.889 115.944 235.889 115.889C235.795 115.789 235.658 115.741 235.522 115.76C235.384 115.78 235.266 115.87 235.21 115.998C235.146 116.154 233.613 119.875 236.256 124.695C238.898 129.516 244.55 130.844 244.789 130.899ZM236.962 124.274C235.656 122.067 235.227 119.45 235.76 116.942C237.128 118.381 241.238 122.358 246.312 123.98L244.596 129.983C243.321 129.607 239.064 128.104 236.962 124.274Z" fill="#231F20"/>
<path d="M248.358 112.15C247.202 112.06 246.082 111.709 245.082 111.123C244.887 111.012 244.82 110.764 244.931 110.569C245.042 110.374 245.291 110.306 245.486 110.417C246.193 110.821 248.239 111.737 249.156 111.141C249.753 110.757 249.101 106.99 247.725 102.894C247.654 102.681 247.769 102.451 247.982 102.381C248.195 102.31 248.425 102.425 248.496 102.637C249.321 105.084 251.074 110.885 249.587 111.801C249.219 112.031 248.792 112.152 248.358 112.15Z" fill="#231F20"/>
<path d="M246.679 117.117C245.727 117.131 244.784 116.924 243.926 116.512C241.633 115.375 240.256 112.709 239.779 108.585C239.758 108.363 239.916 108.164 240.137 108.136C240.244 108.123 240.352 108.153 240.437 108.22C240.521 108.288 240.575 108.386 240.587 108.493C241.018 112.324 242.256 114.78 244.257 115.824C247.312 117.336 251.211 115.045 251.248 115.027C251.34 114.97 251.452 114.953 251.557 114.978C251.662 115.004 251.753 115.071 251.808 115.165C251.921 115.357 251.86 115.605 251.67 115.724C250.141 116.578 248.43 117.055 246.679 117.117Z" fill="#231F20"/>
<path d="M247.11 98.8248C246.897 98.8253 246.721 98.661 246.706 98.4491C246.642 97.5327 246.376 96.9737 245.899 96.7354C244.981 96.2589 243.266 97.1203 242.697 97.496C242.509 97.62 242.257 97.5687 242.133 97.3815C242.008 97.1942 242.06 96.9419 242.247 96.8179C242.348 96.7537 244.697 95.2325 246.257 96.0114C247.085 96.512 247.569 97.4287 247.514 98.3941C247.521 98.5011 247.486 98.6067 247.415 98.6875C247.345 98.7684 247.245 98.8178 247.138 98.8248H247.11Z" fill="#231F20"/>
<path d="M257.285 103.37C257.076 103.371 256.901 103.212 256.882 103.004C256.882 103.004 256.698 100.988 255.551 100.254C254.56 99.6038 253.404 101.088 253.395 101.107C253.33 101.192 253.233 101.248 253.126 101.262C253.019 101.276 252.911 101.246 252.826 101.18C252.739 101.116 252.681 101.02 252.666 100.913C252.65 100.806 252.678 100.698 252.744 100.612C253.303 99.8787 254.698 98.724 256.001 99.5763C257.478 100.548 257.68 102.857 257.689 102.949C257.699 103.056 257.666 103.162 257.597 103.245C257.528 103.328 257.429 103.379 257.322 103.389L257.285 103.37Z" fill="#231F20"/>
<path d="M225.016 101.153C224.872 102.613 225.126 104.085 225.75 105.414C227.053 107.824 230.265 108.805 232.889 108.026C239.742 106 243.036 92.9781 237.852 87.8645C233.035 83.1174 227.567 90.6137 226.439 95.04C225.916 97.1203 225.09 99.0448 225.016 101.153Z" fill="#231F20"/>
<path fill-rule="evenodd" clip-rule="evenodd" d="M225.393 105.606C226.588 107.576 228.748 108.755 231.054 108.695C231.704 108.682 232.349 108.58 232.971 108.392C236.274 107.476 239.054 103.948 240.238 99.228C241.422 94.5085 240.605 90.0455 238.1 87.5804C236.89 86.2272 235.021 85.6676 233.265 86.1324C229.769 87.0947 226.806 91.8692 226.007 94.9484C225.861 95.5074 225.695 96.0664 225.53 96.6254C225.047 98.0868 224.739 99.6003 224.613 101.134C224.454 102.668 224.724 104.216 225.393 105.606ZM226.108 105.231C225.512 103.965 225.274 102.561 225.42 101.171H225.429C225.563 99.7009 225.871 98.252 226.347 96.8545L226.347 96.8545C226.512 96.2863 226.677 95.7182 226.824 95.15C227.558 92.3366 230.356 87.8186 233.513 86.9022C234.993 86.5174 236.565 87.0038 237.568 88.1577C239.862 90.4213 240.587 94.6276 239.486 99.0356C238.385 103.444 235.816 106.724 232.779 107.641C230.265 108.438 227.529 107.449 226.108 105.231Z" fill="#231F20"/>
<path d="M263.121 109.208C262.949 109.208 262.78 109.161 262.634 109.07C262.205 108.806 262.07 108.245 262.332 107.815C262.433 107.65 272.608 90.9345 274.351 80.5148C274.984 76.7392 273.305 72.9086 269.626 69.7103C264.598 65.3481 257.093 63.3962 251.78 65.0732C242.33 68.0607 237.302 89.8165 237.247 89.9997C237.133 90.489 236.646 90.7955 236.155 90.6871C235.661 90.5775 235.35 90.0898 235.458 89.5965C235.669 88.6801 240.779 66.6219 251.23 63.3228C257.203 61.4442 265.259 63.497 270.828 68.3265C275.012 71.9921 276.911 76.3909 276.168 80.8172C274.333 91.5943 264.323 108.071 263.901 108.768C263.735 109.04 263.44 109.207 263.121 109.208Z" fill="#231F20"/>
<path d="M312.868 239C309.579 238.989 306.313 238.46 303.189 237.433C299.465 236.114 296.02 234.112 293.032 231.531C287.939 227.416 283.453 222.504 279.113 217.785C276.36 214.77 273.516 211.654 270.543 208.777C261.231 199.759 251.982 194.957 243.018 194.517C230.962 193.912 220.273 200.795 210.529 208.318C209.611 209.051 208.62 209.812 207.648 210.582C199.766 216.823 190.83 223.888 179.82 222.23C172.314 221.102 166.488 215.934 162.928 211.801C154.166 201.619 150.083 187.057 152.111 172.935C154.258 157.723 162.745 147.001 177.342 141.062C189.426 136.15 200.831 129.277 211.868 122.633L211.96 122.588C218.796 118.464 226.053 113.185 228.007 105.267C228.047 105.104 228.171 104.973 228.332 104.925C228.494 104.878 228.669 104.919 228.791 105.035C228.913 105.151 228.964 105.323 228.925 105.487C226.888 113.735 219.456 119.151 212.456 123.366L212.373 123.421C201.308 130.084 189.866 136.975 177.719 141.915C163.442 147.716 155.148 158.19 153.047 173.073C151.083 186.929 155.047 201.179 163.616 211.159C167.075 215.182 172.718 220.204 179.948 221.286C190.564 222.889 198.959 216.245 207.07 209.83L209.96 207.558C219.851 199.924 230.705 192.941 243.055 193.564C252.23 194.022 261.68 198.907 271.158 208.08C274.149 210.985 277.003 214.11 279.764 217.134C284.077 221.863 288.536 226.747 293.582 230.816C296.482 233.325 299.823 235.274 303.436 236.562C315.832 240.558 328.209 236.626 340.311 224.869C358.267 207.384 368.387 180.881 368.066 152.069C367.919 138.616 365.405 128.104 360.377 119.921C358.349 116.612 355.79 112.928 351.624 111.086C349.495 110.17 344.504 109.822 342.577 112.525C341.843 113.561 341.77 114.78 341.66 116.328C341.66 116.997 341.568 117.749 341.467 118.564C341.434 118.818 341.202 118.996 340.949 118.963C340.695 118.93 340.517 118.698 340.55 118.445C340.66 117.657 340.696 116.952 340.742 116.273C340.843 114.642 340.935 113.24 341.825 111.994C344.064 108.85 349.55 109.18 351.991 110.253C356.432 112.195 359.047 116.017 361.166 119.417C366.286 127.747 368.837 138.414 368.993 152.041C369.314 181.073 359.102 207.851 340.963 225.501C331.769 234.491 322.346 238.991 312.868 239Z" fill="#231F20"/>
<path d="M224.172 37.0216C224.039 37.0205 223.913 36.964 223.824 36.8659C223.648 36.6846 223.648 36.3965 223.824 36.2152C225.842 34.4648 227.842 33.6951 229.778 33.915C231.422 34.1393 232.914 34.9898 233.944 36.2885C234.089 36.4946 234.044 36.7782 233.843 36.93C233.744 37.002 233.621 37.0318 233.501 37.0129C233.38 36.9939 233.272 36.9279 233.201 36.8292C232.323 35.7355 231.065 35.0124 229.677 34.8039C228.007 34.6115 226.246 35.3171 224.429 36.8934C224.36 36.963 224.27 37.0081 224.172 37.0216Z" fill="#231F20"/>
<path d="M251.505 185.39C251.441 185.403 251.376 185.403 251.312 185.39C251.108 185.28 251.027 185.029 251.129 184.821L262.708 161.636C262.812 161.431 263.062 161.349 263.267 161.453C263.473 161.557 263.555 161.807 263.451 162.012L251.881 185.16C251.81 185.303 251.664 185.392 251.505 185.39Z" fill="#231F20"/>
<path d="M229.934 189.908C216.676 189.908 201.097 185.619 200.234 185.38C200.072 185.358 199.937 185.244 199.888 185.088C199.84 184.931 199.886 184.761 200.008 184.651C200.129 184.541 200.303 184.511 200.455 184.574C200.739 184.647 228.558 192.318 241.422 187.415C241.639 187.335 241.881 187.445 241.963 187.662C242.004 187.764 242.002 187.879 241.957 187.979C241.912 188.079 241.828 188.157 241.724 188.194C237.926 189.453 233.935 190.033 229.934 189.908Z" fill="#231F20"/>
<rect x="340.403" y="114.312" width="2.00018" height="2.96919" fill="#231F20"/>
<path fill-rule="evenodd" clip-rule="evenodd" d="M340.403 117.685H342.403C342.51 117.685 342.613 117.642 342.689 117.567C342.764 117.491 342.807 117.388 342.807 117.281V114.312C342.807 114.09 342.626 113.909 342.403 113.909H340.403C340.294 113.907 340.189 113.948 340.111 114.024C340.034 114.1 339.99 114.204 339.99 114.312V117.281C339.995 117.506 340.178 117.685 340.403 117.685ZM341.999 116.869H340.807V114.716H341.999V116.869Z" fill="#231F20"/>
<path d="M233.026 105.661L232.366 105.02C236.549 100.862 237.508 94.4554 234.724 89.2574L235.513 88.7901C238.5 94.346 237.49 101.201 233.026 105.661Z" fill="white"/>
<path d="M263.304 117.685L262.451 117.346C265.13 110.445 264.451 105.35 264.451 105.304L265.369 105.176C265.387 105.368 266.075 110.537 263.304 117.685Z" fill="white"/>
<path d="M189.236 79.7799L195.883 72.9932L196.538 73.634L189.891 80.4208L189.236 79.7799Z" fill="white"/>
<path d="M309.407 168.9L309.81 168.077L316.872 171.531L316.469 172.354L309.407 168.9Z" fill="white"/>
<path d="M73.7965 105.082C73.4112 104.991 72.9983 104.927 72.6221 104.798C71.4198 104.501 70.4641 103.591 70.1081 102.406C69.8532 101.381 70.0539 100.295 70.6586 99.4281C71.6704 97.8955 73.2704 96.8477 75.081 96.5322C76.2646 96.2665 76.7968 96.3306 78.6777 96.7888V74.7215L100.404 70.3777V70.8726C100.404 79.7068 100.404 88.5319 100.404 97.3662C100.46 98.7692 99.868 100.12 98.7988 101.032C97.0444 102.732 94.5091 103.355 92.1651 102.663C90.9509 102.394 89.9842 101.477 89.6512 100.28C89.3813 99.2595 89.5796 98.1715 90.1925 97.3112C91.2036 95.7696 92.8134 94.7198 94.6333 94.4153C95.8198 94.156 97.0562 94.2451 98.1932 94.6719V79.496L96.6518 79.7985C91.4831 80.8371 86.3236 81.8665 81.1733 82.8868C80.8889 82.9418 80.843 83.0517 80.843 83.3083C80.843 88.6785 80.843 94.0396 80.843 99.4006C80.8976 101.071 80.0994 102.655 78.7236 103.607C77.7108 104.372 76.515 104.859 75.2554 105.018C75.1898 105.035 75.1255 105.057 75.0627 105.082H73.7965Z" fill="#CD7DF3"/>
<path d="M417.605 168.33C417.605 168.156 417.605 167.981 417.605 167.807C417.549 167.327 417.369 166.869 417.082 166.479C416.617 165.801 416.014 165.23 415.312 164.802C414.61 164.352 413.828 164.041 413.009 163.885C412.487 163.784 411.952 163.784 411.43 163.885H411.293C411.288 163.824 411.288 163.763 411.293 163.702C411.385 163.344 411.476 162.996 411.577 162.657L413.412 156.242C414.082 153.914 414.761 151.587 415.431 149.259V149.122L414.789 149.067C413.031 148.973 411.276 149.287 409.66 149.983C408.149 150.607 406.888 151.712 406.072 153.126C405.843 153.53 405.668 153.96 405.476 154.391C405.347 154.666 405.246 154.959 405.127 155.243C405.122 155.283 405.122 155.323 405.127 155.362L405.356 155.225C406.085 154.747 406.849 154.324 407.641 153.96C408.864 153.411 410.203 153.172 411.541 153.264C412.116 153.32 412.683 153.446 413.229 153.64C413.225 153.685 413.225 153.731 413.229 153.777C412.116 157.638 411.011 161.496 409.917 165.351C409.902 165.421 409.902 165.493 409.917 165.562C409.995 166.244 410.283 166.884 410.742 167.395C411.323 168.103 412.057 168.67 412.889 169.054L413.605 169.365L414.266 169.558H414.449C414.994 169.668 415.556 169.668 416.101 169.558C416.56 169.493 416.98 169.265 417.284 168.916C417.383 168.777 417.475 168.634 417.559 168.486L417.605 168.33Z" fill="#CD7DF3"/>
<path d="M91.1356 177.346C91.1356 177.126 91.1356 176.897 91.2365 176.677C91.3972 176.072 91.7135 175.519 92.1541 175.073C92.8945 174.301 93.7883 173.693 94.7781 173.286C95.7689 172.851 96.8344 172.612 97.916 172.58C98.6061 172.559 99.294 172.668 99.9437 172.901L100.118 172.965C100.123 172.886 100.123 172.806 100.118 172.727C100.118 172.26 100.026 171.811 99.9713 171.334C99.6226 168.444 99.2709 165.564 98.9161 162.692C98.5308 159.558 98.1362 156.433 97.7509 153.308V153.125C98.0353 153.125 98.3198 153.125 98.5858 153.189C100.867 153.416 103.065 154.166 105.008 155.379C106.815 156.49 108.205 158.165 108.963 160.145C109.163 160.715 109.332 161.297 109.468 161.886C109.578 162.271 109.651 162.665 109.743 163.059C109.757 163.11 109.757 163.164 109.743 163.215L109.477 162.986C108.637 162.224 107.741 161.525 106.798 160.896C105.345 159.942 103.676 159.365 101.944 159.219C101.192 159.17 100.437 159.213 99.696 159.347C99.7005 159.405 99.7005 159.464 99.696 159.522C100.308 164.702 100.935 169.895 101.577 175.101C101.595 175.188 101.595 175.279 101.577 175.366C101.343 176.241 100.839 177.02 100.136 177.593C99.2473 178.387 98.1857 178.965 97.0352 179.279C96.7141 179.38 96.3838 179.454 96.0627 179.536L95.1452 179.646H94.9984C94.2763 179.692 93.5524 179.592 92.8697 179.353C92.2973 179.182 91.8076 178.807 91.4935 178.299C91.3869 178.101 91.2949 177.896 91.2182 177.685L91.1356 177.346Z" fill="#CD7DF3"/>
<path d="M310.831 96.0664C310.951 95.8281 311.052 95.5807 311.189 95.3608C311.617 94.7381 312.199 94.2362 312.878 93.9037C314.019 93.324 315.269 92.987 316.548 92.9139C317.836 92.8121 319.131 92.9583 320.364 93.3446C321.155 93.5882 321.891 93.9835 322.53 94.5085L322.704 94.646C322.749 94.5608 322.785 94.4718 322.814 94.3802C322.952 93.8395 323.08 93.2988 323.2 92.749L325.402 82.5767C326.191 78.9111 326.977 75.2271 327.76 71.5247L327.805 71.3048C328.127 71.4423 328.429 71.5614 328.723 71.6989C331.2 72.851 333.379 74.5567 335.091 76.6842C336.702 78.6458 337.618 81.0851 337.696 83.6215C337.696 84.3407 337.659 85.0595 337.586 85.775C337.586 86.2607 337.485 86.6915 337.43 87.2138C337.424 87.2722 337.406 87.3286 337.375 87.3788L337.155 87.0214C336.509 85.8338 335.772 84.6972 334.953 83.6215C333.689 81.9694 332.029 80.6615 330.127 79.8183C329.299 79.4677 328.429 79.2244 327.539 79.0944C327.539 79.0944 327.539 79.0944 327.475 79.0944C327.465 79.1657 327.45 79.2361 327.429 79.3051L323.466 97.5785C323.444 97.6856 323.404 97.788 323.346 97.8809C322.738 98.7754 321.866 99.4579 320.851 99.8329C319.532 100.375 318.108 100.61 316.685 100.52C316.281 100.52 315.887 100.465 315.483 100.429L314.428 100.209L314.254 100.135C313.422 99.9047 312.645 99.5089 311.969 98.9714C311.395 98.5469 310.989 97.9335 310.822 97.2394C310.787 96.975 310.765 96.7088 310.758 96.4421L310.831 96.0664Z" fill="#CD7DF3"/>
<path d="M58.0921 50.8C53.3669 50.8 53.3578 58.1314 58.0921 58.1314C62.8265 58.1314 62.8265 50.8 58.0921 50.8Z" fill="#698DFF"/>
<path d="M415.092 58.8C410.367 58.8 410.358 66.1314 415.092 66.1314C419.827 66.1314 419.827 58.8 415.092 58.8Z" fill="#698DFF"/>
<path d="M354.713 41.9174C354.625 41.6145 354.464 41.3377 354.245 41.111L353.869 40.8269C353.591 40.6622 353.274 40.5737 352.951 40.5703H352.437C352.191 40.5593 351.947 40.6164 351.731 40.7353C351.502 40.8042 351.295 40.9341 351.134 41.111C350.962 41.2725 350.833 41.474 350.758 41.6975C350.643 41.9141 350.589 42.1581 350.602 42.4031L350.666 42.898C350.752 43.2017 350.913 43.4789 351.134 43.7044L351.511 43.9885C351.789 44.1501 352.106 44.2354 352.428 44.236H352.942C353.187 44.2502 353.432 44.1963 353.648 44.0802C353.875 44.0052 354.079 43.8762 354.245 43.7044C354.569 43.3459 354.757 42.8856 354.777 42.4031C354.759 42.2473 354.731 42.0824 354.713 41.9174Z" fill="#698DFF"/>
<path d="M135.561 33.3486C132.607 33.3486 132.598 37.9307 135.561 37.9307C138.525 37.9307 138.516 33.3486 135.561 33.3486Z" fill="#698DFF"/>
<path d="M399.895 77.8396C396.94 77.8396 396.94 82.4217 399.895 82.4217C402.849 82.4217 402.849 77.8396 399.895 77.8396Z" fill="#698DFF"/>
</g>
<defs>
<filter id="filter0_d_0_85" x="0" y="0" width="490" height="757" filterUnits="userSpaceOnUse" color-interpolation-filters="sRGB">
<feFlood flood-opacity="0" result="BackgroundImageFix"/>
<feColorMatrix in="SourceAlpha" type="matrix" values="0 0 0 0 0 0 0 0 0 0 0 0 0 0 0 0 0 0 127 0" result="hardAlpha"/>
<feMorphology radius="20" operator="erode" in="SourceAlpha" result="effect1_dropShadow_0_85"/>
<feOffset dy="40"/>
<feGaussianBlur stdDeviation="20"/>
<feColorMatrix type="matrix" values="0 0 0 0 0.0504209 0 0 0 0 0.188181 0 0 0 0 0.739221 0 0 0 0.151826 0"/>
<feBlend mode="normal" in2="BackgroundImageFix" result="effect1_dropShadow_0_85"/>
<feBlend mode="normal" in="SourceGraphic" in2="effect1_dropShadow_0_85" result="shape"/>
</filter>
</defs>
</svg>
