<svg width="251" height="62" viewBox="0 0 251 62" fill="none" xmlns="http://www.w3.org/2000/svg">
<path d="M73.5 0.5H250.5V61.5H73.5V0.5Z" stroke="white"/>
<path d="M107.168 38C106.772 38 106.406 37.904 106.07 37.712C105.746 37.52 105.488 37.262 105.296 36.938C105.104 36.602 105.008 36.236 105.008 35.84V27.2C105.008 26.804 105.104 26.444 105.296 26.12C105.488 25.784 105.746 25.52 106.07 25.328C106.406 25.136 106.772 25.04 107.168 25.04H117.932V26.498H107.168C106.976 26.498 106.808 26.57 106.664 26.714C106.532 26.846 106.466 27.008 106.466 27.2V35.84C106.466 36.032 106.532 36.2 106.664 36.344C106.808 36.476 106.976 36.542 107.168 36.542H117.932V38H107.168ZM121.897 38C121.501 38 121.135 37.904 120.799 37.712C120.475 37.508 120.211 37.244 120.007 36.92C119.815 36.584 119.719 36.218 119.719 35.822V29.738C119.719 29.342 119.815 28.982 120.007 28.658C120.211 28.322 120.475 28.058 120.799 27.866C121.135 27.662 121.501 27.56 121.897 27.56H128.161C128.569 27.56 128.935 27.662 129.259 27.866C129.595 28.058 129.859 28.322 130.051 28.658C130.255 28.982 130.357 29.342 130.357 29.738V35.822C130.357 36.218 130.255 36.584 130.051 36.92C129.859 37.244 129.595 37.508 129.259 37.712C128.935 37.904 128.569 38 128.161 38H121.897ZM121.897 36.524H128.161C128.353 36.524 128.515 36.458 128.647 36.326C128.791 36.182 128.863 36.014 128.863 35.822V29.738C128.863 29.546 128.791 29.384 128.647 29.252C128.515 29.108 128.353 29.036 128.161 29.036H121.897C121.705 29.036 121.537 29.108 121.393 29.252C121.261 29.384 121.195 29.546 121.195 29.738V35.822C121.195 36.014 121.261 36.182 121.393 36.326C121.537 36.458 121.705 36.524 121.897 36.524ZM131.972 38V27.56H140.432C140.828 27.56 141.188 27.662 141.512 27.866C141.848 28.058 142.112 28.322 142.304 28.658C142.508 28.982 142.61 29.342 142.61 29.738V38H141.134V29.738C141.134 29.546 141.062 29.384 140.918 29.252C140.786 29.108 140.624 29.036 140.432 29.036H134.168C133.976 29.036 133.808 29.108 133.664 29.252C133.52 29.384 133.448 29.546 133.448 29.738V38H131.972ZM146.665 38C146.257 38 145.885 37.904 145.549 37.712C145.225 37.508 144.967 37.244 144.775 36.92C144.583 36.584 144.487 36.218 144.487 35.822V24.14H145.963V27.56H150.481V29.036H145.963V35.822C145.963 36.014 146.029 36.182 146.161 36.326C146.305 36.458 146.473 36.524 146.665 36.524H150.481V38H146.665ZM154.03 38C153.634 38 153.268 37.904 152.932 37.712C152.608 37.508 152.344 37.244 152.14 36.92C151.948 36.584 151.852 36.218 151.852 35.822V32.042H160.996V29.738C160.996 29.546 160.924 29.384 160.78 29.252C160.648 29.108 160.486 29.036 160.294 29.036H151.852V27.56H160.294C160.702 27.56 161.068 27.662 161.392 27.866C161.728 28.058 161.992 28.322 162.184 28.658C162.388 28.982 162.49 29.342 162.49 29.738V38H154.03ZM154.03 36.524H160.996V33.518H153.328V35.822C153.328 36.014 153.394 36.182 153.526 36.326C153.67 36.458 153.838 36.524 154.03 36.524ZM166.334 38C165.938 38 165.572 37.904 165.236 37.712C164.912 37.508 164.648 37.244 164.444 36.92C164.252 36.584 164.156 36.218 164.156 35.822V29.738C164.156 29.342 164.252 28.982 164.444 28.658C164.648 28.322 164.912 28.058 165.236 27.866C165.572 27.662 165.938 27.56 166.334 27.56H174.758V29.036H166.334C166.142 29.036 165.974 29.108 165.83 29.252C165.698 29.384 165.632 29.546 165.632 29.738V35.822C165.632 36.014 165.698 36.182 165.83 36.326C165.974 36.458 166.142 36.524 166.334 36.524H174.794V38H166.334ZM178.429 38C178.021 38 177.649 37.904 177.313 37.712C176.989 37.508 176.731 37.244 176.539 36.92C176.347 36.584 176.251 36.218 176.251 35.822V24.14H177.727V27.56H182.245V29.036H177.727V35.822C177.727 36.014 177.793 36.182 177.925 36.326C178.069 36.458 178.237 36.524 178.429 36.524H182.245V38H178.429ZM190.716 38C190.32 38 189.954 37.904 189.618 37.712C189.294 37.52 189.036 37.262 188.844 36.938C188.652 36.602 188.556 36.236 188.556 35.84V25.04H190.014V35.84C190.014 36.032 190.08 36.2 190.212 36.344C190.356 36.476 190.524 36.542 190.716 36.542H199.356C199.548 36.542 199.71 36.476 199.842 36.344C199.986 36.2 200.058 36.032 200.058 35.84V25.04H201.516V35.84C201.516 36.236 201.42 36.602 201.228 36.938C201.036 37.262 200.772 37.52 200.436 37.712C200.112 37.904 199.752 38 199.356 38H190.716ZM205.532 38C205.136 38 204.77 37.904 204.434 37.712C204.11 37.508 203.846 37.244 203.642 36.92C203.45 36.584 203.354 36.218 203.354 35.822V35.678H204.83V35.822C204.83 36.014 204.896 36.182 205.028 36.326C205.172 36.458 205.34 36.524 205.532 36.524H211.796C211.988 36.524 212.15 36.458 212.282 36.326C212.426 36.182 212.498 36.014 212.498 35.822V34.22C212.498 34.028 212.426 33.866 212.282 33.734C212.15 33.59 211.988 33.518 211.796 33.518H205.532C205.136 33.518 204.77 33.422 204.434 33.23C204.11 33.026 203.846 32.762 203.642 32.438C203.45 32.102 203.354 31.736 203.354 31.34V29.738C203.354 29.342 203.45 28.982 203.642 28.658C203.846 28.322 204.11 28.058 204.434 27.866C204.77 27.662 205.136 27.56 205.532 27.56H211.796C212.204 27.56 212.57 27.662 212.894 27.866C213.23 28.058 213.494 28.322 213.686 28.658C213.89 28.982 213.992 29.342 213.992 29.738V29.882H212.498V29.738C212.498 29.546 212.426 29.384 212.282 29.252C212.15 29.108 211.988 29.036 211.796 29.036H205.532C205.34 29.036 205.172 29.108 205.028 29.252C204.896 29.384 204.83 29.546 204.83 29.738V31.34C204.83 31.532 204.896 31.7 205.028 31.844C205.172 31.976 205.34 32.042 205.532 32.042H211.796C212.204 32.042 212.57 32.144 212.894 32.348C213.23 32.54 213.494 32.804 213.686 33.14C213.89 33.464 213.992 33.824 213.992 34.22V35.822C213.992 36.218 213.89 36.584 213.686 36.92C213.494 37.244 213.23 37.508 212.894 37.712C212.57 37.904 212.204 38 211.796 38H205.532Z" fill="white"/>
<path d="M25 49C20 49 15.75 47.25 12.25 43.75C8.75 40.25 7 36 7 31C7 26 8.75 21.75 12.25 18.25C15.75 14.75 20 13 25 13C25.2667 13 25.55 13.0083 25.85 13.025C26.15 13.0417 26.5333 13.0667 27 13.1C25.8 14.1667 24.8667 15.4833 24.2 17.05C23.5333 18.6167 23.2 20.2667 23.2 22C23.2 25 24.25 27.55 26.35 29.65C28.45 31.75 31 32.8 34 32.8C35.7333 32.8 37.3833 32.4917 38.95 31.875C40.5167 31.2583 41.8333 30.4 42.9 29.3C42.9333 29.7 42.9583 30.025 42.975 30.275C42.9917 30.525 43 30.7667 43 31C43 36 41.25 40.25 37.75 43.75C34.25 47.25 30 49 25 49ZM25 46C28.6333 46 31.8 44.875 34.5 42.625C37.2 40.375 38.8833 37.7333 39.55 34.7C38.7167 35.0667 37.825 35.3417 36.875 35.525C35.925 35.7083 34.9667 35.8 34 35.8C30.1667 35.8 26.9083 34.4583 24.225 31.775C21.5417 29.0917 20.2 25.8333 20.2 22C20.2 21.2 20.2833 20.3417 20.45 19.425C20.6167 18.5083 20.9167 17.4667 21.35 16.3C18.0833 17.2 15.375 19.025 13.225 21.775C11.075 24.525 10 27.6 10 31C10 35.1667 11.4583 38.7083 14.375 41.625C17.2917 44.5417 20.8333 46 25 46Z" fill="white"/>
</svg>
